<?xml version="1.0" encoding="utf-8"?>
<!-- Generator: Adobe Illustrator 22.1.0, SVG Export Plug-In . SVG Version: 6.00 Build 0)  -->
<svg version="1.1" id="Layer_1" xmlns="http://www.w3.org/2000/svg" xmlns:xlink="http://www.w3.org/1999/xlink" x="0px" y="0px"
	 viewBox="0 0 917 377" style="enable-background:new 0 0 917 377;" xml:space="preserve">
<style type="text/css">
	.st0{fill:#DCDCDC;}
	.st1{fill:#94A3C0;}
	.st2{opacity:0.31;}
	.st3{fill:#FFBE3D;}
	.st4{opacity:0.6;}
	.st5{fill:url(#SVGID_1_);}
	.st6{enable-background:new    ;}
	.st7{fill:url(#SVGID_2_);}
	.st8{fill:url(#SVGID_3_);}
	.st9{fill:url(#SVGID_4_);}
	.st10{fill:url(#SVGID_5_);}
	.st11{fill:url(#SVGID_6_);}
	.st12{fill:url(#SVGID_7_);}
	.st13{fill:url(#SVGID_8_);}
	.st14{fill:#A6A8AB;}
	.st15{fill:#524C7C;}
	.st16{fill:url(#SVGID_9_);}
	.st17{fill:#EAEAEA;}
	.st18{fill:#E7C9FF;}
	.st19{opacity:0.2;fill:#FFFFFF;}
	.st20{opacity:0.4;fill:#6C7195;}
	.st21{opacity:0.4;}
	.st22{opacity:0.4;fill:#5C5C5C;}
	.st23{fill:#9FAED4;}
	.st24{fill:url(#SVGID_10_);}
	.st25{fill:url(#SVGID_11_);}
	.st26{fill:url(#SVGID_12_);}
	.st27{fill:#382747;}
	.st28{fill:url(#SVGID_13_);}
	.st29{fill:url(#SVGID_14_);}
	.st30{fill:#6377A9;}
	.st31{fill:#48CFFF;}
	.st32{fill:url(#SVGID_15_);}
	.st33{fill:url(#SVGID_16_);}
	.st34{fill:url(#SVGID_17_);}
	.st35{opacity:0.32;fill:#94A3C0;}
	.st36{fill:#FF7C40;}
	.st37{fill:#FF4237;}
	.st38{fill:url(#SVGID_18_);}
	.st39{fill:#265497;}
	.st40{fill:url(#SVGID_19_);}
	.st41{fill:url(#SVGID_20_);}
	.st42{fill:#3BC9FF;}
	.st43{fill:#882E38;}
	.st44{fill:#FF6A95;}
	.st45{fill:#FF5668;}
	.st46{fill:#883911;}
	.st47{fill:#FF8B1F;}
	.st48{fill:#FF6B1F;}
	.st49{fill:#886621;}
	.st50{fill:#FFD43D;}
	.st51{fill:#4A3888;}
	.st52{fill:#B390FF;}
	.st53{fill:#8B68FF;}
	.st54{fill:#005478;}
	.st55{fill:#00C5F9;}
	.st56{fill:#009EE0;}
	.st57{fill:#FFFAF0;}
	.st58{fill:#574BAA;}
	.st59{fill:#FFFFFF;}
	.st60{opacity:0.53;}
	.st61{opacity:0.3;fill:#DCDCDC;}
	.st62{fill:none;stroke:#574BAA;stroke-width:0.5;stroke-miterlimit:10;}
	.st63{fill:#5E5985;}
</style>
<g>
	<g>
	</g>
	<g>
		<g>
			<g>
				<g>
					<polygon class="st0" points="707.3,44.4 707.3,46.8 705.1,45.6 705.1,43.1 					"/>
				</g>
				<g>
					<polygon class="st1" points="729,56.6 729,59 726.8,57.8 726.8,55.3 					"/>
				</g>
				<g>
					<polygon class="st0" points="750.6,68.8 750.6,71.2 748.4,70 748.4,67.5 					"/>
				</g>
				<g>
					<polygon class="st1" points="772.3,81 772.3,83.4 770.1,82.2 770.1,79.7 					"/>
				</g>
				<g>
					<polygon class="st1" points="793.9,93.2 793.9,95.6 791.7,94.4 791.7,91.9 					"/>
				</g>
				<g>
					<polygon class="st1" points="815.6,105.4 815.6,107.8 813.4,106.6 813.4,104.1 					"/>
				</g>
				<g class="st2">
					<polygon class="st0" points="707.3,66.8 707.3,69.3 705.1,68 705.1,65.6 					"/>
				</g>
				<g>
					<polygon class="st3" points="728.9,79 728.9,81.5 726.7,80.2 726.7,77.8 					"/>
				</g>
				<g class="st2">
					<polygon class="st0" points="750.6,91.2 750.6,93.7 748.4,92.4 748.4,90 					"/>
				</g>
				<g>
					<polygon class="st0" points="772.2,103.4 772.2,105.9 770,104.6 770,102.2 					"/>
				</g>
				<g>
					<polygon class="st1" points="793.9,115.6 793.8,118.1 791.7,116.8 791.7,114.4 					"/>
				</g>
				<g>
					<polygon class="st3" points="815.5,127.8 815.5,130.3 813.3,129.1 813.3,126.6 					"/>
				</g>
				<g>
					<polygon class="st1" points="707.2,89.3 707.2,91.7 705,90.5 705,88 					"/>
				</g>
				<g>
					<polygon class="st1" points="728.8,101.5 728.8,103.9 726.6,102.7 726.7,100.2 					"/>
				</g>
				<g>
					<polygon class="st1" points="750.5,113.7 750.5,116.1 748.3,114.9 748.3,112.4 					"/>
				</g>
				<g>
					<polygon class="st3" points="772.1,125.9 772.1,128.3 769.9,127.1 770,124.6 					"/>
				</g>
				<g>
					<polygon class="st1" points="793.8,138.1 793.8,140.5 791.6,139.3 791.6,136.8 					"/>
				</g>
				<g class="st2">
					<polygon class="st0" points="815.4,150.3 815.4,152.7 813.2,151.5 813.3,149 					"/>
				</g>
				<g>
					<polygon class="st1" points="707.1,111.7 707.1,114.2 704.9,112.9 704.9,110.5 					"/>
				</g>
				<g>
					<polygon class="st1" points="728.8,123.9 728.8,126.4 726.6,125.1 726.6,122.7 					"/>
				</g>
				<g>
					<polygon class="st1" points="750.4,136.1 750.4,138.6 748.2,137.3 748.2,134.9 					"/>
				</g>
				<g>
					<polygon class="st0" points="772.1,148.3 772.1,150.8 769.9,149.5 769.9,147.1 					"/>
				</g>
				<g>
					<polygon class="st3" points="793.7,160.5 793.7,163 791.5,161.7 791.5,159.3 					"/>
				</g>
				<g>
					<polygon class="st1" points="815.4,172.7 815.4,175.2 813.2,173.9 813.2,171.5 					"/>
				</g>
				<g>
					<polygon class="st1" points="707.1,134.1 707.1,136.6 704.9,135.4 704.9,132.9 					"/>
				</g>
				<g>
					<polygon class="st1" points="728.7,146.3 728.7,148.8 726.5,147.6 726.5,145.1 					"/>
				</g>
				<g>
					<polygon class="st1" points="750.4,158.5 750.4,161 748.2,159.8 748.2,157.3 					"/>
				</g>
				<g>
					<polygon class="st1" points="772,170.7 772,173.2 769.8,172 769.8,169.5 					"/>
				</g>
				<g>
					<polygon class="st0" points="793.7,183 793.7,185.4 791.5,184.2 791.5,181.7 					"/>
				</g>
				<g>
					<polygon class="st3" points="815.3,195.2 815.3,197.6 813.1,196.4 813.1,193.9 					"/>
				</g>
				<g>
					<polygon class="st1" points="707,156.6 707,159 704.8,157.8 704.8,155.3 					"/>
				</g>
				<g>
					<polygon class="st1" points="728.7,168.8 728.6,171.2 726.4,170 726.5,167.5 					"/>
				</g>
				<g>
					<polygon class="st1" points="750.3,181 750.3,183.5 748.1,182.2 748.1,179.8 					"/>
				</g>
				<g>
					<polygon class="st1" points="771.9,193.2 771.9,195.7 769.7,194.4 769.8,192 					"/>
				</g>
				<g>
					<polygon class="st1" points="793.6,205.4 793.6,207.9 791.4,206.6 791.4,204.2 					"/>
				</g>
				<g>
					<polygon class="st1" points="815.2,217.6 815.2,220.1 813,218.8 813.1,216.4 					"/>
				</g>
			</g>
			<g class="st4">
				
					<linearGradient id="SVGID_1_" gradientUnits="userSpaceOnUse" x1="489.9579" y1="162.0064" x2="431.0644" y2="213.5381" gradientTransform="matrix(1 0 0 1 26 0)">
					<stop  offset="0" style="stop-color:#D7E9F2"/>
					<stop  offset="0.9548" style="stop-color:#A5BFEC"/>
					<stop  offset="1" style="stop-color:#A2BDEC"/>
				</linearGradient>
				<path class="st5" d="M544.7,176c1.9,1.1,1.9,2.8,0,3.9l-63.9,36.2c-1.9,1.1-5,1.1-6.9,0L434.6,194c-1.9-1.1-1.9-2.8,0-3.9
					l63.9-36.2c1.9-1.1,5-1.1,6.9,0L544.7,176z"/>
			</g>
			<g>
				<g class="st6">
					<g>
						<linearGradient id="SVGID_2_" gradientUnits="userSpaceOnUse" x1="727.002" y1="264.8507" x2="727.002" y2="169.352">
							<stop  offset="0" style="stop-color:#A2BDEC"/>
							<stop  offset="4.518694e-02" style="stop-color:#A5BFEC"/>
							<stop  offset="1" style="stop-color:#D7E9F2"/>
						</linearGradient>
						<polygon class="st7" points="806.7,209.8 806.6,220.9 647.4,311.3 647.4,300.2 						"/>
					</g>
					<g>
						<linearGradient id="SVGID_3_" gradientUnits="userSpaceOnUse" x1="515.8924" y1="68.2517" x2="591.7892" y2="352.6357">
							<stop  offset="0" style="stop-color:#F2FFFF"/>
							<stop  offset="0.1965" style="stop-color:#ECFBFD"/>
							<stop  offset="0.4481" style="stop-color:#DCF0F7"/>
							<stop  offset="0.7285" style="stop-color:#C2DEED"/>
							<stop  offset="1" style="stop-color:#A2C7E1"/>
						</linearGradient>
						<polygon class="st8" points="647.4,300.2 647.4,311.3 487,220.9 487.1,209.8 						"/>
					</g>
					<g>
						<linearGradient id="SVGID_4_" gradientUnits="userSpaceOnUse" x1="638.1801" y1="129.7322" x2="662.6971" y2="355.8343">
							<stop  offset="0" style="stop-color:#D3E6F0"/>
							<stop  offset="0.2014" style="stop-color:#DDEEF5"/>
							<stop  offset="0.6494" style="stop-color:#ECFBFC"/>
							<stop  offset="1" style="stop-color:#F2FFFF"/>
						</linearGradient>
						<polygon class="st9" points="806.7,209.8 647.4,300.2 487.1,209.8 646.3,119.4 						"/>
					</g>
				</g>
			</g>
			<g>
				<g>
					<g class="st6">
						<g>
							<linearGradient id="SVGID_5_" gradientUnits="userSpaceOnUse" x1="727.002" y1="264.8507" x2="727.002" y2="169.352">
								<stop  offset="0" style="stop-color:#A2BDEC"/>
								<stop  offset="4.518694e-02" style="stop-color:#A5BFEC"/>
								<stop  offset="1" style="stop-color:#D7E9F2"/>
							</linearGradient>
							<polygon class="st10" points="806.7,209.8 806.6,220.9 647.4,311.3 647.4,300.2 							"/>
						</g>
						<g>
							<linearGradient id="SVGID_6_" gradientUnits="userSpaceOnUse" x1="515.8924" y1="68.2517" x2="591.7892" y2="352.6357">
								<stop  offset="0" style="stop-color:#F2FFFF"/>
								<stop  offset="0.1965" style="stop-color:#ECFBFD"/>
								<stop  offset="0.4481" style="stop-color:#DCF0F7"/>
								<stop  offset="0.7285" style="stop-color:#C2DEED"/>
								<stop  offset="1" style="stop-color:#A2C7E1"/>
							</linearGradient>
							<polygon class="st11" points="647.4,300.2 647.4,311.3 487,220.9 487.1,209.8 							"/>
						</g>
						<g>
							<linearGradient id="SVGID_7_" gradientUnits="userSpaceOnUse" x1="638.1801" y1="129.7322" x2="662.6971" y2="355.8343">
								<stop  offset="0" style="stop-color:#FAFFFF"/>
								<stop  offset="0.3047" style="stop-color:#F4FBFD"/>
								<stop  offset="0.6941" style="stop-color:#E5F1F7"/>
								<stop  offset="1" style="stop-color:#D3E6F0"/>
							</linearGradient>
							<polygon class="st12" points="806.7,209.8 647.4,300.2 487.1,209.8 646.3,119.4 							"/>
						</g>
					</g>
				</g>
			</g>
			<g>
				<g>
					<linearGradient id="SVGID_8_" gradientUnits="userSpaceOnUse" x1="688.0146" y1="93.2261" x2="682.8632" y2="218.4074">
						<stop  offset="0" style="stop-color:#B1D9DF"/>
						<stop  offset="0.7043" style="stop-color:#EAEEEE"/>
					</linearGradient>
					<path class="st13" d="M749.6,209l-2.1-85.9c-0.1-4.8-1.8-7.1-5.1-8.9L624.5,51.3c-1.2-0.6-2.3-0.9-3.1-0.5l0,0
						c0,0,1.9-1.2,2.1-1.2l0,0v0c0.8-0.3,1.9-0.1,3.1,0.5L744.5,113c3.3,1.8,4.9,4.1,5.1,8.9l2.1,85.9c0.1,2.3-0.6,3.6-1.6,4.1
						l-1.7,1C749.1,212.3,749.6,211.1,749.6,209z"/>
					<polygon class="st14" points="747.9,213.2 747.9,213.2 747.9,213.2 					"/>
				</g>
				<path class="st15" d="M746.8,220.3c0-0.1,0-0.3,0-0.4l-0.1-4.3h0c-0.1,1.1-0.9,2.2-2.5,3.1L669,263.3c-3,1.8-7.7,2.1-10.4,0.7
					L540.7,201c-1.2-0.6-1.8-1.5-1.8-2.3l0,0l0.1,4.7l0,0c0,0.9,0.6,1.8,1.9,2.5l117.9,62.9c2.7,1.4,7.4,1.1,10.4-0.7l75.2-44.7
					C745.9,222.5,746.7,221.4,746.8,220.3L746.8,220.3L746.8,220.3z"/>
				<linearGradient id="SVGID_9_" gradientUnits="userSpaceOnUse" x1="720.8777" y1="160.2585" x2="558.4076" y2="257.2167">
					<stop  offset="0" style="stop-color:#C5E4FF"/>
					<stop  offset="0.7043" style="stop-color:#EAEEEE"/>
				</linearGradient>
				<path class="st16" d="M744.8,212.7l-117.9-62.9c-2.7-1.4-7.4-1.1-10.4,0.7L572,176.9l-30.7,18.2c-0.4,0.2-0.7,0.5-1,0.7
					c0,0,0,0,0,0c-2.1,1.7-2,3.9,0.4,5.2L658.6,264c2.7,1.4,7.4,1.1,10.4-0.7l30.7-18.2h0l44.5-26.5
					C747.3,216.8,747.5,214.2,744.8,212.7z"/>
				<path class="st15" d="M591,226.8l19.2,10.3c0.5,0.3,0.5,0.7,0,1l-21.1-11.3C589.6,226.6,590.4,226.6,591,226.8z"/>
				<polygon class="st15" points="634.7,155.4 734.4,208.6 735.7,207.9 636,154.6 				"/>
				<g>
					<path class="st17" d="M747.5,123.1c-0.1-4.8-1.8-7.1-5.1-8.9L624.5,51.3c-2.7-1.4-4.9-0.7-4.7,3.7l2.1,85.9
						c0.1,5.6,2.1,7.3,5.1,8.9l117.9,62.9c2.7,1.4,4.8,0.5,4.7-3.7L747.5,123.1z"/>
					<path id="XMLID_1_" class="st18" d="M744.3,201.1l-1.9-80.8c0-0.3-0.2-0.5-0.4-0.7L626.2,57.8c-0.5-0.3-1.2,0.1-1.2,0.7
						l1.9,80.8c0,0.3,0.2,0.5,0.4,0.7l115.7,61.8C743.6,202.1,744.3,201.7,744.3,201.1z"/>
					<path class="st19" d="M715.4,105.4L662,76.9l-35.8-19.1c-0.5-0.3-1.2,0.1-1.2,0.7l1.9,80.8c0,0.3,0.2,0.5,0.4,0.7l15.8,8.4
						L715.4,105.4z"/>
				</g>
				<g>
					<path class="st20" d="M593.4,212l15.9-9.4c0.9-0.6,2.5-0.6,3.5-0.1l39.4,21c1,0.5,1,1.4,0.1,2l-15.9,9.4L593.4,212z"/>
					<g class="st21">
						<path class="st22" d="M614.6,224l21.2,11.3l-8.6,5.1c-0.9,0.6-2.5,0.6-3.5,0.1l-19.4-10.3L614.6,224z"/>
						<path class="st22" d="M613.9,223.7l-10.3,6.1l-19.4-10.3c-1-0.5-1-1.4-0.1-2l8.6-5.1L613.9,223.7z"/>
					</g>
				</g>
				<g>
					<g>
						<path class="st23" d="M718.4,219.2l5.9,3.1c0.4,0.2,1,0.2,1.4-0.1l5.5-3.3c0.4-0.2,0.4-0.6,0.1-0.8l-5.9-3.1
							c-0.4-0.2-1-0.2-1.4,0.1l-5.5,3.3C718.1,218.6,718.1,219,718.4,219.2z"/>
						<path class="st23" d="M710.4,214.9l5.9,3.1c0.4,0.2,1,0.2,1.4-0.1l5.5-3.3c0.4-0.2,0.4-0.6,0.1-0.8l-5.9-3.1
							c-0.4-0.2-1-0.2-1.4,0.1l-5.5,3.3C710.1,214.4,710.1,214.7,710.4,214.9z"/>
						<path class="st23" d="M702.4,210.7l5.9,3.1c0.4,0.2,1,0.2,1.4-0.1l5.5-3.3c0.4-0.2,0.4-0.6,0.1-0.8l-5.9-3.1
							c-0.4-0.2-1-0.2-1.4,0.1l-5.5,3.3C702.1,210.1,702.1,210.5,702.4,210.7z"/>
						<path class="st23" d="M694.5,206.4l5.9,3.1c0.4,0.2,1,0.2,1.4-0.1l5.5-3.3c0.4-0.2,0.4-0.6,0.1-0.8l-5.9-3.1
							c-0.4-0.2-1-0.2-1.4,0.1l-5.5,3.3C694.1,205.9,694.1,206.2,694.5,206.4z"/>
						<path class="st23" d="M686.5,202.1l5.9,3.1c0.4,0.2,1,0.2,1.4-0.1l5.5-3.3c0.4-0.2,0.4-0.6,0.1-0.8l-5.9-3.1
							c-0.4-0.2-1-0.2-1.4,0.1l-5.5,3.3C686.1,201.6,686.1,201.9,686.5,202.1z"/>
						<path class="st23" d="M678.5,197.9l5.9,3.1c0.4,0.2,1,0.2,1.4-0.1l5.5-3.3c0.4-0.2,0.4-0.6,0.1-0.8l-5.9-3.1
							c-0.4-0.2-1-0.2-1.4,0.1l-5.5,3.3C678.2,197.3,678.1,197.7,678.5,197.9z"/>
						<path class="st23" d="M670.5,193.6l5.9,3.1c0.4,0.2,1,0.2,1.4-0.1l5.5-3.3c0.4-0.2,0.4-0.6,0.1-0.8l-5.9-3.1
							c-0.4-0.2-1-0.2-1.4,0.1l-5.5,3.3C670.2,193.1,670.1,193.4,670.5,193.6z"/>
						<path class="st23" d="M662.5,189.4l5.9,3.1c0.4,0.2,1,0.2,1.4-0.1l5.5-3.3c0.4-0.2,0.4-0.6,0.1-0.8l-5.9-3.1
							c-0.4-0.2-1-0.2-1.4,0.1l-5.5,3.3C662.2,188.8,662.2,189.2,662.5,189.4z"/>
						<path class="st23" d="M654.5,185.1l5.9,3.1c0.4,0.2,1,0.2,1.4-0.1l5.5-3.3c0.4-0.2,0.4-0.6,0.1-0.8l-5.9-3.1
							c-0.4-0.2-1-0.2-1.4,0.1l-5.5,3.3C654.2,184.6,654.2,184.9,654.5,185.1z"/>
						<path class="st23" d="M646.5,180.8l5.9,3.1c0.4,0.2,1,0.2,1.4-0.1l5.5-3.3c0.4-0.2,0.4-0.6,0.1-0.8l-5.9-3.1
							c-0.4-0.2-1-0.2-1.4,0.1l-5.5,3.3C646.2,180.3,646.2,180.6,646.5,180.8z"/>
						<path class="st23" d="M638.6,176.6l5.9,3.1c0.4,0.2,1,0.2,1.4-0.1l5.5-3.3c0.4-0.2,0.4-0.6,0.1-0.8l-5.9-3.1
							c-0.4-0.2-1-0.2-1.4,0.1l-5.5,3.3C638.2,176,638.2,176.4,638.6,176.6z"/>
						<path class="st23" d="M630.6,172.3l5.9,3.1c0.4,0.2,1,0.2,1.4-0.1l5.5-3.3c0.4-0.2,0.4-0.6,0.1-0.8l-5.9-3.1
							c-0.4-0.2-1-0.2-1.4,0.1l-5.5,3.3C630.3,171.8,630.2,172.1,630.6,172.3z"/>
						<path class="st23" d="M622.6,168.1l5.9,3.1c0.4,0.2,1,0.2,1.4-0.1l5.5-3.3c0.4-0.2,0.4-0.6,0.1-0.8l-5.9-3.1
							c-0.4-0.2-1-0.2-1.4,0.1l-5.5,3.3C622.3,167.5,622.2,167.9,622.6,168.1z"/>
						<path class="st23" d="M611,161.9l9.5,5.1c0.4,0.2,1,0.2,1.4-0.1l5.5-3.3c0.4-0.2,0.4-0.6,0.1-0.8l-9.5-5.1
							c-0.4-0.2-1-0.2-1.4,0.1l-5.5,3.3C610.7,161.3,610.6,161.7,611,161.9z"/>
					</g>
					<g>
						<path class="st23" d="M616.1,165.5l-5.9-3.1c-0.4-0.2-1-0.2-1.4,0.1l-5.5,3.3c-0.4,0.2-0.4,0.6-0.1,0.8l5.9,3.1
							c0.4,0.2,1,0.2,1.4-0.1l5.5-3.3C616.5,166,616.5,165.7,616.1,165.5z"/>
						<path class="st23" d="M624.1,169.7l-5.9-3.1c-0.4-0.2-1-0.2-1.4,0.1l-5.5,3.3c-0.4,0.2-0.4,0.6-0.1,0.8l5.9,3.1
							c0.4,0.2,1,0.2,1.4-0.1l5.5-3.3C624.5,170.3,624.5,169.9,624.1,169.7z"/>
						<path class="st23" d="M632.1,174l-5.9-3.1c-0.4-0.2-1-0.2-1.4,0.1l-5.5,3.3c-0.4,0.2-0.4,0.6-0.1,0.8l5.9,3.1
							c0.4,0.2,1,0.2,1.4-0.1l5.5-3.3C632.4,174.5,632.5,174.2,632.1,174z"/>
						<path class="st23" d="M640.1,178.2l-5.9-3.1c-0.4-0.2-1-0.2-1.4,0.1l-5.5,3.3c-0.4,0.2-0.4,0.6-0.1,0.8l5.9,3.1
							c0.4,0.2,1,0.2,1.4-0.1l5.5-3.3C640.4,178.8,640.5,178.4,640.1,178.2z"/>
						<path class="st23" d="M648.1,182.5l-5.9-3.1c-0.4-0.2-1-0.2-1.4,0.1l-5.5,3.3c-0.4,0.2-0.4,0.6-0.1,0.8l5.9,3.1
							c0.4,0.2,1,0.2,1.4-0.1l5.5-3.3C648.4,183,648.4,182.7,648.1,182.5z"/>
						<path class="st23" d="M656.1,186.8l-5.9-3.1c-0.4-0.2-1-0.2-1.4,0.1l-5.5,3.3c-0.4,0.2-0.4,0.6-0.1,0.8l5.9,3.1
							c0.4,0.2,1,0.2,1.4-0.1l5.5-3.3C656.4,187.3,656.4,187,656.1,186.8z"/>
						<path class="st23" d="M664.1,191l-5.9-3.1c-0.4-0.2-1-0.2-1.4,0.1l-5.5,3.3c-0.4,0.2-0.4,0.6-0.1,0.8l5.9,3.1
							c0.4,0.2,1,0.2,1.4-0.1l5.5-3.3C664.4,191.6,664.4,191.2,664.1,191z"/>
						<path class="st23" d="M672,195.3l-5.9-3.1c-0.4-0.2-1-0.2-1.4,0.1l-5.5,3.3c-0.4,0.2-0.4,0.6-0.1,0.8l5.9,3.1
							c0.4,0.2,1,0.2,1.4-0.1l5.5-3.3C672.4,195.8,672.4,195.5,672,195.3z"/>
						<path class="st23" d="M680,199.5l-5.9-3.1c-0.4-0.2-1-0.2-1.4,0.1l-5.5,3.3c-0.4,0.2-0.4,0.6-0.1,0.8l5.9,3.1
							c0.4,0.2,1,0.2,1.4-0.1l5.5-3.3C680.4,200.1,680.4,199.7,680,199.5z"/>
						<path class="st23" d="M688,203.8l-5.9-3.1c-0.4-0.2-1-0.2-1.4,0.1l-5.5,3.3c-0.4,0.2-0.4,0.6-0.1,0.8l5.9,3.1
							c0.4,0.2,1,0.2,1.4-0.1l5.5-3.3C688.3,204.4,688.4,204,688,203.8z"/>
						<path class="st23" d="M696,208.1l-5.9-3.1c-0.4-0.2-1-0.2-1.4,0.1l-5.5,3.3c-0.4,0.2-0.4,0.6-0.1,0.8l5.9,3.1
							c0.4,0.2,1,0.2,1.4-0.1l5.5-3.3C696.3,208.6,696.4,208.3,696,208.1z"/>
						<path class="st23" d="M704,212.3l-5.9-3.1c-0.4-0.2-1-0.2-1.4,0.1l-5.5,3.3c-0.4,0.2-0.4,0.6-0.1,0.8l5.9,3.1
							c0.4,0.2,1,0.2,1.4-0.1l5.5-3.3C704.3,212.9,704.3,212.5,704,212.3z"/>
						<path class="st23" d="M712,216.6l-5.9-3.1c-0.4-0.2-1-0.2-1.4,0.1l-5.5,3.3c-0.4,0.2-0.4,0.6-0.1,0.8l5.9,3.1
							c0.4,0.2,1,0.2,1.4-0.1l5.5-3.3C712.3,217.1,712.3,216.8,712,216.6z"/>
						<path class="st23" d="M723.6,222.8l-9.5-5.1c-0.4-0.2-1-0.2-1.4,0.1l-5.5,3.3c-0.4,0.2-0.4,0.6-0.1,0.8l9.5,5.1
							c0.4,0.2,1,0.2,1.4-0.1l5.5-3.3C723.9,223.3,723.9,223,723.6,222.8z"/>
					</g>
					<g>
						<path class="st23" d="M614.2,173.1l-11.7-6.2c-0.4-0.2-1-0.2-1.4,0.1l-5.5,3.3c-0.4,0.2-0.4,0.6-0.1,0.8l11.7,6.2
							c0.4,0.2,1,0.2,1.4-0.1l5.5-3.3C614.5,173.7,614.5,173.3,614.2,173.1z"/>
						<path class="st23" d="M715.8,227.3l-11.7-6.2c-0.4-0.2-1-0.2-1.4,0.1l-5.5,3.3c-0.4,0.2-0.4,0.6-0.1,0.8l11.7,6.2
							c0.4,0.2,1,0.2,1.4-0.1l5.5-3.3C716.1,227.9,716.1,227.5,715.8,227.3z"/>
						<path class="st23" d="M622.2,177.4l-5.9-3.1c-0.4-0.2-1-0.2-1.4,0.1l-5.5,3.3c-0.4,0.2-0.4,0.6-0.1,0.8l5.9,3.1
							c0.4,0.2,1,0.2,1.4-0.1l5.5-3.3C622.5,177.9,622.5,177.6,622.2,177.4z"/>
						<path class="st23" d="M630.2,181.7l-5.9-3.1c-0.4-0.2-1-0.2-1.4,0.1l-5.5,3.3c-0.4,0.2-0.4,0.6-0.1,0.8l5.9,3.1
							c0.4,0.2,1,0.2,1.4-0.1l5.5-3.3C630.5,182.2,630.5,181.8,630.2,181.7z"/>
						<path class="st23" d="M638.1,185.9l-5.9-3.1c-0.4-0.2-1-0.2-1.4,0.1l-5.5,3.3c-0.4,0.2-0.4,0.6-0.1,0.8l5.9,3.1
							c0.4,0.2,1,0.2,1.4-0.1l5.5-3.3C638.5,186.5,638.5,186.1,638.1,185.9z"/>
						<path class="st23" d="M646.1,190.2l-5.9-3.1c-0.4-0.2-1-0.2-1.4,0.1l-5.5,3.3c-0.4,0.2-0.4,0.6-0.1,0.8l5.9,3.1
							c0.4,0.2,1,0.2,1.4-0.1l5.5-3.3C646.5,190.7,646.5,190.4,646.1,190.2z"/>
						<path class="st23" d="M654.1,194.4l-5.9-3.1c-0.4-0.2-1-0.2-1.4,0.1l-5.5,3.3c-0.4,0.2-0.4,0.6-0.1,0.8l5.9,3.1
							c0.4,0.2,1,0.2,1.4-0.1l5.5-3.3C654.4,195,654.5,194.6,654.1,194.4z"/>
						<path class="st23" d="M662.1,198.7l-5.9-3.1c-0.4-0.2-1-0.2-1.4,0.1l-5.5,3.3c-0.4,0.2-0.4,0.6-0.1,0.8l5.9,3.1
							c0.4,0.2,1,0.2,1.4-0.1l5.5-3.3C662.4,199.2,662.5,198.9,662.1,198.7z"/>
						<path class="st23" d="M670.1,203l-5.9-3.1c-0.4-0.2-1-0.2-1.4,0.1l-5.5,3.3c-0.4,0.2-0.4,0.6-0.1,0.8l5.9,3.1
							c0.4,0.2,1,0.2,1.4-0.1l5.5-3.3C670.4,203.5,670.4,203.1,670.1,203z"/>
						<path class="st23" d="M678.1,207.2l-5.9-3.1c-0.4-0.2-1-0.2-1.4,0.1l-5.5,3.3c-0.4,0.2-0.4,0.6-0.1,0.8l5.9,3.1
							c0.4,0.2,1,0.2,1.4-0.1l5.5-3.3C678.4,207.8,678.4,207.4,678.1,207.2z"/>
						<path class="st23" d="M686.1,211.5l-5.9-3.1c-0.4-0.2-1-0.2-1.4,0.1l-5.5,3.3c-0.4,0.2-0.4,0.6-0.1,0.8l5.9,3.1
							c0.4,0.2,1,0.2,1.4-0.1l5.5-3.3C686.4,212,686.4,211.7,686.1,211.5z"/>
						<path class="st23" d="M694,215.7l-5.9-3.1c-0.4-0.2-1-0.2-1.4,0.1l-5.5,3.3c-0.4,0.2-0.4,0.6-0.1,0.8l5.9,3.1
							c0.4,0.2,1,0.2,1.4-0.1l5.5-3.3C694.4,216.3,694.4,215.9,694,215.7z"/>
						<path class="st23" d="M702,220l-5.9-3.1c-0.4-0.2-1-0.2-1.4,0.1l-5.5,3.3c-0.4,0.2-0.4,0.6-0.1,0.8l5.9,3.1
							c0.4,0.2,1,0.2,1.4-0.1l5.5-3.3C702.3,220.5,702.4,220.2,702,220z"/>
					</g>
					<g>
						<path class="st23" d="M610.4,179.8l-15.6-8.3c-0.4-0.2-1-0.2-1.4,0.1l-5.5,3.3c-0.4,0.2-0.4,0.6-0.1,0.8l15.6,8.3
							c0.4,0.2,1,0.2,1.4-0.1l5.5-3.3C610.8,180.4,610.8,180,610.4,179.8z"/>
						<path class="st23" d="M618.4,184.1l-5.9-3.1c-0.4-0.2-1-0.2-1.4,0.1l-5.5,3.3c-0.4,0.2-0.4,0.6-0.1,0.8l5.9,3.1
							c0.4,0.2,1,0.2,1.4-0.1l5.5-3.3C618.7,184.6,618.8,184.3,618.4,184.1z"/>
						<path class="st23" d="M626.4,188.4l-5.9-3.1c-0.4-0.2-1-0.2-1.4,0.1l-5.5,3.3c-0.4,0.2-0.4,0.6-0.1,0.8l5.9,3.1
							c0.4,0.2,1,0.2,1.4-0.1l5.5-3.3C626.7,188.9,626.8,188.6,626.4,188.4z"/>
						<path class="st23" d="M634.4,192.6l-5.9-3.1c-0.4-0.2-1-0.2-1.4,0.1l-5.5,3.3c-0.4,0.2-0.4,0.6-0.1,0.8l5.9,3.1
							c0.4,0.2,1,0.2,1.4-0.1l5.5-3.3C634.7,193.2,634.7,192.8,634.4,192.6z"/>
						<path class="st23" d="M642.4,196.9l-5.9-3.1c-0.4-0.2-1-0.2-1.4,0.1l-5.5,3.3c-0.4,0.2-0.4,0.6-0.1,0.8l5.9,3.1
							c0.4,0.2,1,0.2,1.4-0.1l5.5-3.3C642.7,197.4,642.7,197.1,642.4,196.9z"/>
						<path class="st23" d="M650.4,201.1l-5.9-3.1c-0.4-0.2-1-0.2-1.4,0.1l-5.5,3.3c-0.4,0.2-0.4,0.6-0.1,0.8l5.9,3.1
							c0.4,0.2,1,0.2,1.4-0.1l5.5-3.3C650.7,201.7,650.7,201.3,650.4,201.1z"/>
						<path class="st23" d="M658.3,205.4l-5.9-3.1c-0.4-0.2-1-0.2-1.4,0.1l-5.5,3.3c-0.4,0.2-0.4,0.6-0.1,0.8l5.9,3.1
							c0.4,0.2,1,0.2,1.4-0.1l5.5-3.3C658.7,205.9,658.7,205.6,658.3,205.4z"/>
						<path class="st23" d="M666.3,209.7l-5.9-3.1c-0.4-0.2-1-0.2-1.4,0.1l-5.5,3.3c-0.4,0.2-0.4,0.6-0.1,0.8l5.9,3.1
							c0.4,0.2,1,0.2,1.4-0.1l5.5-3.3C666.6,210.2,666.7,209.9,666.3,209.7z"/>
						<path class="st23" d="M674.3,213.9l-5.9-3.1c-0.4-0.2-1-0.2-1.4,0.1l-5.5,3.3c-0.4,0.2-0.4,0.6-0.1,0.8l5.9,3.1
							c0.4,0.2,1,0.2,1.4-0.1l5.5-3.3C674.6,214.5,674.7,214.1,674.3,213.9z"/>
						<path class="st23" d="M682.3,218.2l-5.9-3.1c-0.4-0.2-1-0.2-1.4,0.1l-5.5,3.3c-0.4,0.2-0.4,0.6-0.1,0.8l5.9,3.1
							c0.4,0.2,1,0.2,1.4-0.1l5.5-3.3C682.6,218.7,682.7,218.4,682.3,218.2z"/>
						<path class="st23" d="M690.3,222.4l-5.9-3.1c-0.4-0.2-1-0.2-1.4,0.1l-5.5,3.3c-0.4,0.2-0.4,0.6-0.1,0.8l5.9,3.1
							c0.4,0.2,1,0.2,1.4-0.1l5.5-3.3C690.6,223,690.6,222.6,690.3,222.4z"/>
						<path class="st23" d="M708,231.9l-15.7-8.4c-0.4-0.2-1-0.2-1.4,0.1l-5.5,3.3c-0.4,0.2-0.4,0.6-0.1,0.8l15.7,8.4
							c0.4,0.2,1,0.2,1.4-0.1l5.5-3.3C708.4,232.5,708.4,232.1,708,231.9z"/>
					</g>
					<g>
						<path class="st23" d="M666.6,218.5l-37.8-20.2c-0.4-0.2-1-0.2-1.4,0.1l-5.5,3.3c-0.4,0.2-0.4,0.6-0.1,0.8l37.8,20.2
							c0.4,0.2,1,0.2,1.4-0.1l5.5-3.3C666.9,219.1,666.9,218.7,666.6,218.5z"/>
						<path class="st23" d="M616.9,192l-5.9-3.1c-0.4-0.2-1-0.2-1.4,0.1l-5.5,3.3c-0.4,0.2-0.4,0.6-0.1,0.8l5.9,3.1
							c0.4,0.2,1,0.2,1.4-0.1l5.5-3.3C617.3,192.6,617.3,192.2,616.9,192z"/>
						<path class="st23" d="M626.7,197.2l-7.6-4.1c-0.4-0.2-1-0.2-1.4,0.1l-5.5,3.3c-0.4,0.2-0.4,0.6-0.1,0.8l7.6,4.1
							c0.4,0.2,1,0.2,1.4-0.1l5.5-3.3C627,197.8,627,197.4,626.7,197.2z"/>
						<path class="st23" d="M678.4,224.8l5.9,3.1c0.4,0.2,0.3,0.5-0.1,0.8l-5.5,3.3c-0.4,0.2-1,0.3-1.4,0.1l-5.9-3.1
							c-0.4-0.2-0.3-0.5,0.1-0.8l5.5-3.3C677.4,224.7,678,224.6,678.4,224.8z"/>
						<path class="st23" d="M668.7,219.6l7.6,4.1c0.4,0.2,0.3,0.5-0.1,0.8l-5.5,3.3c-0.4,0.2-1,0.3-1.4,0.1l-7.6-4.1
							c-0.4-0.2-0.3-0.5,0.1-0.8l5.5-3.3C667.7,219.5,668.3,219.4,668.7,219.6z"/>
						<path class="st23" d="M593,179.2l-5.9-3.1c-0.4-0.2-1-0.2-1.4,0.1l-5.5,3.3c-0.4,0.2-0.4,0.6-0.1,0.8l5.9,3.1
							c0.4,0.2,1,0.2,1.4-0.1l5.5-3.3C593.3,179.8,593.3,179.4,593,179.2z"/>
						<path class="st23" d="M601,183.5l-5.9-3.1c-0.4-0.2-1-0.2-1.4,0.1l-5.5,3.3c-0.4,0.2-0.4,0.6-0.1,0.8l5.9,3.1
							c0.4,0.2,1,0.2,1.4-0.1l5.5-3.3C601.3,184,601.3,183.7,601,183.5z"/>
						<path class="st23" d="M608.9,187.8l-5.9-3.1c-0.4-0.2-1-0.2-1.4,0.1l-5.5,3.3c-0.4,0.2-0.4,0.6-0.1,0.8l5.9,3.1
							c0.4,0.2,1,0.2,1.4-0.1l5.5-3.3C609.3,188.3,609.3,188,608.9,187.8z"/>
						<path class="st23" d="M700.3,236.5l-13.9-7.4c-0.4-0.2-1-0.2-1.4,0.1l-5.5,3.3c-0.4,0.2-0.4,0.6-0.1,0.8l13.9,7.4
							c0.4,0.2,1,0.2,1.4-0.1l5.5-3.3C700.7,237.1,700.7,236.7,700.3,236.5z"/>
					</g>
					<g>
						<path class="st23" d="M726.1,214.6l5.9,3.1c0.4,0.2,1,0.2,1.4-0.1l2.7-1.6c0.4-0.2,0.4-0.6,0.1-0.8l-5.9-3.1
							c-0.4-0.2-1-0.2-1.4,0.1l-2.7,1.6C725.8,214,725.8,214.4,726.1,214.6z"/>
						<path class="st23" d="M718.1,210.3l5.9,3.1c0.4,0.2,1,0.2,1.4-0.1l2.7-1.6c0.4-0.2,0.4-0.6,0.1-0.8l-5.9-3.1
							c-0.4-0.2-1-0.2-1.4,0.1l-2.7,1.6C717.8,209.8,717.8,210.1,718.1,210.3z"/>
						<path class="st23" d="M710.2,206.1l5.9,3.1c0.4,0.2,1,0.2,1.4-0.1l2.7-1.6c0.4-0.2,0.4-0.6,0.1-0.8l-5.9-3.1
							c-0.4-0.2-1-0.2-1.4,0.1l-2.7,1.6C709.8,205.5,709.8,205.9,710.2,206.1z"/>
						<path class="st23" d="M702.2,201.8l5.9,3.1c0.4,0.2,1,0.2,1.4-0.1l2.7-1.6c0.4-0.2,0.4-0.6,0.1-0.8l-5.9-3.1
							c-0.4-0.2-1-0.2-1.4,0.1l-2.7,1.6C701.9,201.3,701.8,201.6,702.2,201.8z"/>
						<path class="st23" d="M694.2,197.5l5.9,3.1c0.4,0.2,1,0.2,1.4-0.1l2.7-1.6c0.4-0.2,0.4-0.6,0.1-0.8l-5.9-3.1
							c-0.4-0.2-1-0.2-1.4,0.1l-2.7,1.6C693.9,197,693.8,197.4,694.2,197.5z"/>
						<path class="st23" d="M686.2,193.3l5.9,3.1c0.4,0.2,1,0.2,1.4-0.1l2.7-1.6c0.4-0.2,0.4-0.6,0.1-0.8l-5.9-3.1
							c-0.4-0.2-1-0.2-1.4,0.1l-2.7,1.6C685.9,192.7,685.8,193.1,686.2,193.3z"/>
						<path class="st23" d="M678.2,189l5.9,3.1c0.4,0.2,1,0.2,1.4-0.1l2.7-1.6c0.4-0.2,0.4-0.6,0.1-0.8l-5.9-3.1
							c-0.4-0.2-1-0.2-1.4,0.1l-2.7,1.6C677.9,188.5,677.9,188.8,678.2,189z"/>
						<path class="st23" d="M670.2,184.8l5.9,3.1c0.4,0.2,1,0.2,1.4-0.1l2.7-1.6c0.4-0.2,0.4-0.6,0.1-0.8l-5.9-3.1
							c-0.4-0.2-1-0.2-1.4,0.1l-2.7,1.6C669.9,184.2,669.9,184.6,670.2,184.8z"/>
						<path class="st23" d="M662.3,180.5l5.9,3.1c0.4,0.2,1,0.2,1.4-0.1l2.7-1.6c0.4-0.2,0.4-0.6,0.1-0.8l-5.9-3.1
							c-0.4-0.2-1-0.2-1.4,0.1l-2.7,1.6C661.9,180,661.9,180.3,662.3,180.5z"/>
						<path class="st23" d="M654.3,176.2l5.9,3.1c0.4,0.2,1,0.2,1.4-0.1l2.7-1.6c0.4-0.2,0.4-0.6,0.1-0.8l-5.9-3.1
							c-0.4-0.2-1-0.2-1.4,0.1l-2.7,1.6C653.9,175.7,653.9,176,654.3,176.2z"/>
						<path class="st23" d="M646.3,172l5.9,3.1c0.4,0.2,1,0.2,1.4-0.1l2.7-1.6c0.4-0.2,0.4-0.6,0.1-0.8l-5.9-3.1
							c-0.4-0.2-1-0.2-1.4,0.1l-2.7,1.6C646,171.4,645.9,171.8,646.3,172z"/>
						<path class="st23" d="M638.3,167.7l5.9,3.1c0.4,0.2,1,0.2,1.4-0.1l2.7-1.6c0.4-0.2,0.4-0.6,0.1-0.8l-5.9-3.1
							c-0.4-0.2-1-0.2-1.4,0.1l-2.7,1.6C638,167.2,637.9,167.5,638.3,167.7z"/>
						<path class="st23" d="M630.3,163.5l5.9,3.1c0.4,0.2,1,0.2,1.4-0.1l2.7-1.6c0.4-0.2,0.4-0.6,0.1-0.8l-5.9-3.1
							c-0.4-0.2-1-0.2-1.4,0.1l-2.7,1.6C630,162.9,630,163.3,630.3,163.5z"/>
						<path class="st23" d="M618.7,157.3l9.5,5.1c0.4,0.2,1,0.2,1.4-0.1l2.7-1.6c0.4-0.2,0.4-0.6,0.1-0.8l-9.5-5.1
							c-0.4-0.2-1-0.2-1.4,0.1l-2.7,1.6C618.4,156.7,618.4,157.1,618.7,157.3z"/>
					</g>
				</g>
			</g>
			<g class="st4">
				<linearGradient id="SVGID_10_" gradientUnits="userSpaceOnUse" x1="795.272" y1="304.3209" x2="703.4341" y2="264.8878">
					<stop  offset="0" style="stop-color:#D7E9F2"/>
					<stop  offset="0.9548" style="stop-color:#A5BFEC"/>
					<stop  offset="1" style="stop-color:#A2BDEC"/>
				</linearGradient>
				<polygon class="st24" points="830,295.6 775.2,326.7 720,295.6 774.8,264.5 				"/>
			</g>
			<g>
				<g>
					<g>
						<g class="st6">
							<g>
								<linearGradient id="SVGID_11_" gradientUnits="userSpaceOnUse" x1="789.6183" y1="275.4417" x2="789.6183" y2="184.7433">
									<stop  offset="0" style="stop-color:#A2BDEC"/>
									<stop  offset="4.518694e-02" style="stop-color:#A5BFEC"/>
									<stop  offset="1" style="stop-color:#D7E9F2"/>
								</linearGradient>
								<polygon class="st25" points="817,223.2 817,288.4 762.2,319.5 762.2,254.3 								"/>
							</g>
							<g>
								<linearGradient id="SVGID_12_" gradientUnits="userSpaceOnUse" x1="695.1032" y1="123.2568" x2="753.5561" y2="342.2786">
									<stop  offset="0" style="stop-color:#F2FFFF"/>
									<stop  offset="0.1965" style="stop-color:#ECFBFD"/>
									<stop  offset="0.4481" style="stop-color:#DCF0F7"/>
									<stop  offset="0.7285" style="stop-color:#C2DEED"/>
									<stop  offset="1" style="stop-color:#A2C7E1"/>
								</linearGradient>
								<polygon class="st26" points="762.2,254.3 762.2,319.5 707,288.4 707.1,223.2 								"/>
							</g>
							<polygon class="st27" points="710.3,290.3 759.9,318.3 760,290.4 710.4,262.5 							"/>
							<g>
								<linearGradient id="SVGID_13_" gradientUnits="userSpaceOnUse" x1="759.0515" y1="195.6131" x2="767.4886" y2="273.423">
									<stop  offset="0" style="stop-color:#FAFFFF"/>
									<stop  offset="0.3047" style="stop-color:#F4FBFD"/>
									<stop  offset="0.6941" style="stop-color:#E5F1F7"/>
									<stop  offset="1" style="stop-color:#D3E6F0"/>
								</linearGradient>
								<polygon class="st28" points="817,223.2 762.2,254.3 707.1,223.2 761.9,192.1 								"/>
							</g>
						</g>
					</g>
				</g>
				<g>
					<g>
						<g>
							<linearGradient id="SVGID_14_" gradientUnits="userSpaceOnUse" x1="773.324" y1="251.0802" x2="809.8942" y2="251.0802">
								<stop  offset="0" style="stop-color:#FAFFFF"/>
								<stop  offset="0.3047" style="stop-color:#F4FBFD"/>
								<stop  offset="0.6941" style="stop-color:#E5F1F7"/>
								<stop  offset="1" style="stop-color:#D3E6F0"/>
							</linearGradient>
							<path class="st29" d="M775.1,257.3c-1,0.6-1.8,1.9-1.8,3l0,2.3c0,1.1,0.8,1.5,1.8,1l33-18.6c1-0.6,1.8-1.9,1.8-3l0-2.3
								c0-1.1-0.8-1.5-1.8-1L775.1,257.3z"/>
						</g>
						<path class="st30" d="M774.6,263l33-18.6c1-0.6,1.8-1.9,1.8-3l0-2.3c0-0.3-0.1-0.5-0.1-0.7c-0.3-0.1-0.7-0.1-1.2,0.2l-33,18.6
							c-1,0.6-1.8,1.9-1.8,3l0,2.3c0,0.3,0.1,0.5,0.1,0.7C773.8,263.3,774.2,263.3,774.6,263z"/>
						<path class="st31" d="M791.4,250.1C791.4,250.1,791.4,250.1,791.4,250.1C791.4,250.1,791.3,250.1,791.4,250.1l-15.1,8.4l0,1.8
							c0,0,0,0.1,0,0.1c0,0,0.1,0,0.1,0l15-8.4L791.4,250.1z"/>
					</g>
					<g>
						<g>
							<linearGradient id="SVGID_15_" gradientUnits="userSpaceOnUse" x1="773.324" y1="264.506" x2="809.8942" y2="264.506">
								<stop  offset="0" style="stop-color:#FAFFFF"/>
								<stop  offset="0.3047" style="stop-color:#F4FBFD"/>
								<stop  offset="0.6941" style="stop-color:#E5F1F7"/>
								<stop  offset="1" style="stop-color:#D3E6F0"/>
							</linearGradient>
							<path class="st32" d="M775.1,270.7c-1,0.6-1.8,1.9-1.8,3l0,2.3c0,1.1,0.8,1.5,1.8,1l33-18.6c1-0.6,1.8-1.9,1.8-3l0-2.3
								c0-1.1-0.8-1.5-1.8-1L775.1,270.7z"/>
						</g>
						<path class="st30" d="M774.6,276.5l33-18.6c1-0.6,1.8-1.9,1.8-3l0-2.3c0-0.3-0.1-0.5-0.1-0.7c-0.3-0.1-0.7-0.1-1.2,0.2
							l-33,18.6c-1,0.6-1.8,1.9-1.8,3l0,2.3c0,0.3,0.1,0.5,0.1,0.7C773.8,276.8,774.2,276.7,774.6,276.5z"/>
						<path class="st31" d="M791.4,263.6C791.4,263.5,791.4,263.5,791.4,263.6C791.4,263.5,791.3,263.5,791.4,263.6l-15.1,8.4l0,1.8
							c0,0,0,0.1,0,0.1c0,0,0.1,0,0.1,0l15-8.4L791.4,263.6z"/>
					</g>
					<g>
						<g>
							<linearGradient id="SVGID_16_" gradientUnits="userSpaceOnUse" x1="773.324" y1="277.9318" x2="809.8942" y2="277.9318">
								<stop  offset="0" style="stop-color:#FAFFFF"/>
								<stop  offset="0.3047" style="stop-color:#F4FBFD"/>
								<stop  offset="0.6941" style="stop-color:#E5F1F7"/>
								<stop  offset="1" style="stop-color:#D3E6F0"/>
							</linearGradient>
							<path class="st33" d="M775.1,284.1c-1,0.6-1.8,1.9-1.8,3l0,2.3c0,1.1,0.8,1.5,1.8,1l33-18.6c1-0.6,1.8-1.9,1.8-3l0-2.3
								c0-1.1-0.8-1.5-1.8-1L775.1,284.1z"/>
						</g>
						<path class="st30" d="M774.6,289.9l33-18.6c1-0.6,1.8-1.9,1.8-3l0-2.3c0-0.3-0.1-0.5-0.1-0.7c-0.3-0.1-0.7-0.1-1.2,0.2
							l-33,18.6c-1,0.6-1.8,1.9-1.8,3l0,2.3c0,0.3,0.1,0.5,0.1,0.7C773.8,290.2,774.2,290.1,774.6,289.9z"/>
						<path class="st31" d="M791.4,277C791.4,276.9,791.4,276.9,791.4,277C791.4,276.9,791.3,276.9,791.4,277l-15.1,8.4l0,1.8
							c0,0,0,0.1,0,0.1c0,0,0.1,0,0.1,0l15-8.4L791.4,277z"/>
					</g>
					<g>
						<g>
							<linearGradient id="SVGID_17_" gradientUnits="userSpaceOnUse" x1="773.324" y1="291.3576" x2="809.8942" y2="291.3576">
								<stop  offset="0" style="stop-color:#FAFFFF"/>
								<stop  offset="0.3047" style="stop-color:#F4FBFD"/>
								<stop  offset="0.6941" style="stop-color:#E5F1F7"/>
								<stop  offset="1" style="stop-color:#D3E6F0"/>
							</linearGradient>
							<path class="st34" d="M775.1,297.5c-1,0.6-1.8,1.9-1.8,3l0,2.3c0,1.1,0.8,1.5,1.8,1l33-18.6c1-0.6,1.8-1.9,1.8-3l0-2.3
								c0-1.1-0.8-1.5-1.8-1L775.1,297.5z"/>
						</g>
						<path class="st30" d="M774.6,303.3l33-18.6c1-0.6,1.8-1.9,1.8-3l0-2.3c0-0.3-0.1-0.5-0.1-0.7c-0.3-0.1-0.7-0.1-1.2,0.2
							l-33,18.6c-1,0.6-1.8,1.9-1.8,3l0,2.3c0,0.3,0.1,0.5,0.1,0.7C773.8,303.6,774.2,303.6,774.6,303.3z"/>
						<path class="st31" d="M791.4,290.4C791.4,290.4,791.4,290.3,791.4,290.4C791.4,290.3,791.3,290.3,791.4,290.4l-15.1,8.4l0,1.8
							c0,0,0,0.1,0,0.1c0,0,0.1,0,0.1,0l15-8.4L791.4,290.4z"/>
					</g>
				</g>
				<g>
					<ellipse class="st35" cx="761.2" cy="223.3" rx="31.2" ry="17"/>
					<g>
						<g>
							<g>
								<polygon class="st36" points="777.2,200.7 777.2,204.2 761,213.4 761,209.9 								"/>
							</g>
							<g>
								<polygon class="st37" points="761,209.9 761,213.4 740.5,207.5 740.5,204 								"/>
							</g>
							<g>
								<linearGradient id="SVGID_18_" gradientUnits="userSpaceOnUse" x1="740.5419" y1="203.3922" x2="777.2247" y2="203.3922">
									<stop  offset="0" style="stop-color:#FF6B1F"/>
									<stop  offset="0.1951" style="stop-color:#FF8127"/>
									<stop  offset="0.5314" style="stop-color:#FFA233"/>
									<stop  offset="0.8119" style="stop-color:#FFB73A"/>
									<stop  offset="1" style="stop-color:#FFBE3D"/>
								</linearGradient>
								<path class="st38" d="M777.2,200.7l-16.2,9.2l-20.5-5.9c5.7-6.4,19.5-8.9,30.9-5.7C773.7,199,775.4,199.7,777.2,200.7z"/>
							</g>
						</g>
						<path class="st39" d="M789.1,217c-0.3,4.5-3.8,8-7.5,10.2c-4.1,2.5-8.9,3.8-13.6,4.5c-4.7,0.6-9.4,0.6-14.1-0.1
							c-4.7-0.7-9.4-2.2-13.3-4.7c-3.6-2.3-7.1-5.9-7.1-10.4c0,0.9,0,1.9,0,2.8c0,1.1,0,2.1,0.2,3.2c0.8,3.7,3.7,6.6,6.9,8.6
							c3.9,2.5,8.5,3.9,13.1,4.7c4.6,0.8,9.4,0.8,14,0.2c4.7-0.6,9.4-1.9,13.6-4.3c3.7-2.1,7.2-5.4,7.9-9.7c0.1-1,0.1-1.9,0.1-2.9
							c0-0.8,0-1.7,0-2.5C789.1,216.7,789.1,216.8,789.1,217z"/>
						<g>
							<linearGradient id="SVGID_19_" gradientUnits="userSpaceOnUse" x1="767.3017" y1="198.5475" x2="755.5631" y2="233.7635">
								<stop  offset="0" style="stop-color:#16D8FF"/>
								<stop  offset="1" style="stop-color:#5155D4"/>
							</linearGradient>
							<path class="st40" d="M780.9,205.3c10.9,6.1,10.9,16.1,0.1,22.2c-10.8,6.1-28.4,6.1-39.3,0c-8.7-4.9-10.7-12.1-5.2-18.2
								l24.8,7.1L780.9,205.3z"/>
						</g>
					</g>
				</g>
			</g>
			<g>
				<g>
					
						<linearGradient id="SVGID_20_" gradientUnits="userSpaceOnUse" x1="480.359" y1="154.6602" x2="421.4655" y2="206.192" gradientTransform="matrix(1 0 0 1 26 0)">
						<stop  offset="0" style="stop-color:#FAFFFF"/>
						<stop  offset="0.3047" style="stop-color:#F4FBFD"/>
						<stop  offset="0.6941" style="stop-color:#E5F1F7"/>
						<stop  offset="1" style="stop-color:#D3E6F0"/>
					</linearGradient>
					<path class="st41" d="M535.1,168.7c1.9,1.1,1.9,2.8,0,3.9l-63.9,36.2c-1.9,1.1-5,1.1-6.9,0L425,186.7c-1.9-1.1-1.9-2.8,0-3.9
						l63.9-36.2c1.9-1.1,5-1.1,6.9,0L535.1,168.7z"/>
				</g>
				<g>
					<path class="st15" d="M536.6,170.8c0,0.1,0,0.1,0,0.1c0,0,0,0.1,0,0.1c0,0,0,0.1,0,0.1c0,0,0,0.1-0.1,0.1c0,0.1,0,0.1-0.1,0.1
						c0,0,0,0.1-0.1,0.1c0,0.1-0.1,0.1-0.1,0.2c0,0-0.1,0.1-0.1,0.1c-0.1,0.1-0.1,0.1-0.2,0.2c0,0-0.1,0.1-0.1,0.1
						c0,0-0.1,0.1-0.1,0.1c0,0-0.1,0.1-0.1,0.1c-0.1,0-0.1,0.1-0.2,0.1c-0.1,0-0.1,0.1-0.2,0.1l-63.9,36.2c-0.2,0.1-0.4,0.2-0.7,0.3
						c-0.1,0-0.1,0-0.2,0.1c-0.1,0.1-0.3,0.1-0.5,0.1c-0.2,0-0.3,0.1-0.5,0.1c-0.2,0-0.4,0.1-0.6,0.1c0,0-0.1,0-0.1,0
						c-0.3,0-0.5,0-0.8,0c0,0-0.1,0-0.1,0c-0.3,0-0.5,0-0.8,0c0,0-0.1,0-0.1,0c-0.3,0-0.5-0.1-0.8-0.1c0,0-0.1,0-0.1,0
						c-0.2-0.1-0.5-0.1-0.7-0.2c0,0-0.1,0-0.1,0c-0.3-0.1-0.5-0.2-0.7-0.3L425,186.7c-0.7-0.4-1.2-0.9-1.4-1.4
						c-0.1-0.2-0.1-0.4-0.1-0.5l0,2.2c0,0.1,0,0.2,0,0.3c0.1,0.6,0.6,1.2,1.4,1.7l39.4,22.2c0.2,0.1,0.5,0.2,0.7,0.3c0,0,0,0,0,0
						c0,0,0.1,0,0.1,0c0.1,0.1,0.3,0.1,0.4,0.1c0.1,0,0.2,0,0.2,0.1c0,0,0.1,0,0.1,0c0,0,0.1,0,0.1,0c0.2,0,0.3,0.1,0.5,0.1
						c0.1,0,0.1,0,0.2,0c0,0,0.1,0,0.1,0c0.1,0,0.1,0,0.2,0c0.2,0,0.3,0,0.5,0c0.1,0,0.1,0,0.2,0c0,0,0.1,0,0.1,0c0.1,0,0.1,0,0.2,0
						c0.2,0,0.4,0,0.5,0c0,0,0,0,0.1,0c0,0,0.1,0,0.1,0c0.1,0,0.3,0,0.4-0.1c0.1,0,0.1,0,0.2,0c0.2,0,0.3-0.1,0.5-0.1
						c0.1,0,0.2,0,0.3-0.1c0.1,0,0.1-0.1,0.2-0.1c0.1,0,0.1,0,0.2-0.1c0.2-0.1,0.5-0.2,0.7-0.3l63.9-36.2c0,0,0,0,0.1,0
						c0,0,0.1-0.1,0.1-0.1c0.1,0,0.1-0.1,0.2-0.1c0,0,0.1-0.1,0.1-0.1c0.1,0,0.1-0.1,0.2-0.1c0,0,0,0,0,0c0,0,0,0,0.1-0.1
						c0.1-0.1,0.1-0.1,0.2-0.2c0,0,0,0,0,0c0,0,0,0,0,0c0-0.1,0.1-0.1,0.1-0.2c0,0,0,0,0-0.1c0,0,0,0,0,0c0,0,0-0.1,0.1-0.1
						c0,0,0-0.1,0-0.1c0,0,0,0,0,0c0,0,0-0.1,0-0.1c0,0,0-0.1,0-0.1c0,0,0,0,0,0c0-0.1,0-0.1,0-0.2c0,0,0-0.1,0-0.1c0,0,0,0,0,0
						l0-2.2C536.6,170.7,536.6,170.8,536.6,170.8z"/>
					<g>
						<path class="st42" d="M529.3,169.4c0.6,0.3,0.6,0.9,0,1.3l-53.6,30.4c-0.6,0.3-1.6,0.3-2.2,0l-35.5-20c-0.6-0.3-0.6-0.9,0-1.3
							l53.6-30.4c0.6-0.3,1.6-0.3,2.2,0L529.3,169.4z"/>
					</g>
					<g>
						<path class="st23" d="M454.1,194.7c0.7,0.4,0.7,1,0,1.4l-0.9,0.5c-0.7,0.4-1.8,0.4-2.5,0l-5.4-3c-0.7-0.4-0.7-1,0-1.4l0.9-0.5
							c0.7-0.4,1.8-0.4,2.5,0L454.1,194.7z"/>
					</g>
				</g>
			</g>
			<g>
				<g class="st6">
					<g>
						<polygon class="st43" points="598.9,148.9 595.6,147 595.5,137.1 598.9,139 						"/>
					</g>
					<g>
						<polygon class="st44" points="598.9,139 595.5,137.1 604,132.3 607.4,134.3 						"/>
					</g>
					<g>
						<polygon class="st45" points="607.4,134.3 607.4,144.2 598.9,148.9 598.9,139 						"/>
					</g>
				</g>
				<g class="st6">
					<g>
						<polygon class="st46" points="570.7,146.1 567.3,144.2 567.3,134.3 570.7,136.2 						"/>
					</g>
					<g>
						<polygon class="st47" points="570.7,136.2 567.3,134.3 604,113.6 607.3,115.5 						"/>
					</g>
					<g>
						<polygon class="st48" points="607.3,115.5 607.4,125.4 570.7,146.1 570.7,136.2 						"/>
					</g>
				</g>
				<g class="st6">
					<g>
						<polygon class="st49" points="587.3,117.9 583.9,116 583.9,106.1 587.2,108 						"/>
					</g>
					<g>
						<polygon class="st50" points="587.2,108 583.9,106.1 603.9,94.8 607.3,96.8 						"/>
					</g>
					<g>
						<polygon class="st3" points="607.3,96.8 607.3,106.7 587.3,117.9 587.2,108 						"/>
					</g>
				</g>
				<g class="st6">
					<g>
						<polygon class="st51" points="559.7,114.7 556.4,112.8 556.3,102.9 559.7,104.8 						"/>
					</g>
					<g>
						<polygon class="st52" points="559.7,104.8 556.3,102.9 603.8,76.1 607.2,78 						"/>
					</g>
					<g>
						<polygon class="st53" points="607.2,78 607.2,87.9 559.7,114.7 559.7,104.8 						"/>
					</g>
				</g>
				<g class="st6">
					<g>
						<polygon class="st54" points="548.5,102.2 545.1,100.3 545.1,90.4 548.5,92.3 						"/>
					</g>
					<g>
						<polygon class="st55" points="548.5,92.3 545.1,90.4 603.8,57.3 607.2,59.2 						"/>
					</g>
					<g>
						<polygon class="st56" points="607.2,59.2 607.2,69.1 548.5,102.2 548.5,92.3 						"/>
					</g>
				</g>
			</g>
			<g>
				<g>
					<path class="st57" d="M701.7,112c-10.4-5.9-20.3-4.4-24.4,4.9c-5.1,11.6,0.7,31.1,13,44.6l2.8-6.5c-8.3-9.5-12.2-22.9-8.7-30.9
						c2.9-6.5,9.8-7.6,17.2-3.4c1.8,1,3.6,2.3,5.4,4l2.8-6.5C707.2,115.6,704.5,113.6,701.7,112z"/>
				</g>
				<g>
					<path class="st58" d="M710,118.2l-2.8,6.5c0.4,0.4,0.9,0.8,1.3,1.3c9.5,9.5,14.1,24.1,10.3,32.7c-0.1,0.3-0.3,0.6-0.4,0.9
						c-0.1,0.1-0.1,0.2-0.2,0.3c-2.7,4.7-8,5.8-13.8,3.6c-0.9-0.4-1.8-0.8-2.8-1.3c-0.2-0.1-0.5-0.3-0.7-0.4
						c-0.5-0.3-0.8-0.5-1.1-0.7l-0.2-0.1c-0.7-0.5-1.5-1.1-2.2-1.7c-0.1-0.1-0.2-0.2-0.3-0.2c-0.3-0.2-0.5-0.5-0.8-0.7
						c-0.1-0.1-0.2-0.2-0.3-0.3c-0.4-0.3-0.7-0.7-1.1-1c-0.6-0.6-1.1-1.2-1.7-1.8l-2.8,6.5c0.5,0.6,1.1,1.2,1.7,1.8
						c0.5,0.5,1,1,1.5,1.5c0.1,0.1,0.3,0.3,0.4,0.4c0.4,0.4,0.8,0.7,1.2,1c0.1,0.1,0.3,0.2,0.4,0.3c1.1,0.9,2.1,1.7,3.2,2.4
						c0.1,0.1,0.2,0.1,0.3,0.2c0.5,0.3,1,0.6,1.4,0.9l0.2,0.1c0.3,0.2,0.7,0.4,1,0.6c0.8,0.4,1.6,0.8,2.3,1.2
						c0.6,0.3,1.1,0.5,1.7,0.7c8.9,3.4,16.8,1.3,20.3-6.8c5.3-12.1-1.2-32.8-14.6-46.3C710.8,119,710.4,118.6,710,118.2z"/>
				</g>
			</g>
			<g>
				<g>
					<g>
						<polygon class="st59" points="635.9,72.8 635.9,133.6 667.1,151.2 667.1,90.4 						"/>
					</g>
				</g>
				<g>
					<polygon class="st0" points="640.4,81.6 640.4,93.8 646.6,97.3 646.6,85.1 					"/>
				</g>
				<g>
					<g>
						<path class="st0" d="M646.2,117.4l0,0.8c0,0.5-0.5,0.8-0.9,0.5l-3.9-2.2c-0.2-0.1-0.3-0.3-0.3-0.5l0-0.8
							c0-0.5,0.5-0.8,0.9-0.5l3.9,2.2C646,117,646.2,117.2,646.2,117.4z"/>
					</g>
					<g>
						<path class="st0" d="M658.5,128.3l0,0.8c0,0.5-0.5,0.8-0.9,0.5l-16.3-9.1c-0.2-0.1-0.3-0.3-0.3-0.5l0-0.8
							c0-0.5,0.5-0.8,0.9-0.5l16.3,9.1C658.4,127.9,658.5,128.1,658.5,128.3z"/>
					</g>
					<g class="st60">
						<path class="st0" d="M651.8,132.6l0,0.8c0,0.5-0.5,0.8-0.9,0.5l-9.6-5.4c-0.2-0.1-0.3-0.3-0.3-0.5v-0.8c0-0.5,0.5-0.8,0.9-0.5
							l9.6,5.4C651.7,132.2,651.8,132.4,651.8,132.6z"/>
					</g>
					<g>
						<path class="st61" d="M656,130.9l0,0.8c0,0.5-0.5,0.8-0.9,0.5l-13.8-7.7c-0.2-0.1-0.3-0.3-0.3-0.5l0-0.8
							c0-0.5,0.5-0.8,0.9-0.5l13.8,7.7C655.9,130.5,656,130.7,656,130.9z"/>
					</g>
				</g>
				<polyline class="st62" points="640.6,109.2 642.7,106.2 644.1,107.3 647.4,101.9 650.2,103.6 652,103.3 656.4,97.2 658.5,98.8 
					662.5,95 				"/>
				<g>
					<g>
						<path class="st45" d="M662.4,93.9c-0.7-0.4-1.3-0.1-1.3,0.7c0,0.8,0.6,1.8,1.3,2.2c0.7,0.4,1.3,0.1,1.3-0.7
							C663.7,95.3,663.1,94.3,662.4,93.9z"/>
					</g>
					<g>
						<path class="st45" d="M662.4,94.7c-0.3-0.2-0.6,0-0.6,0.3c0,0.4,0.3,0.8,0.6,1c0.3,0.2,0.6,0,0.6-0.3
							C663,95.3,662.7,94.9,662.4,94.7z"/>
					</g>
				</g>
				<g>
					<g>
						<path class="st3" d="M647.1,100.5c-0.7-0.4-1.3-0.1-1.3,0.7c0,0.8,0.6,1.8,1.3,2.2c0.7,0.4,1.3,0.1,1.3-0.7
							C648.4,101.9,647.8,100.9,647.1,100.5z"/>
					</g>
					<g>
						<path class="st3" d="M647.1,101.3c-0.3-0.2-0.6,0-0.6,0.3c0,0.4,0.3,0.8,0.6,1s0.6,0,0.6-0.3
							C647.7,101.9,647.4,101.5,647.1,101.3z"/>
					</g>
				</g>
				<g>
					<g>
						<path class="st0" d="M655.2,110.1c-1.9-1.1-3.8-0.8-4.5,0.9c-0.9,2.2,0.1,5.8,2.4,8.3l0.5-1.2c-1.5-1.8-2.3-4.3-1.6-5.7
							c0.5-1.2,1.8-1.4,3.2-0.6c0.3,0.2,0.7,0.4,1,0.7l0.5-1.2C656.3,110.7,655.7,110.3,655.2,110.1z"/>
					</g>
					<g>
						<path class="st14" d="M656.8,111.2l-0.5,1.2c0.1,0.1,0.2,0.2,0.2,0.2c1.8,1.8,2.6,4.5,1.9,6.1c0,0.1-0.1,0.1-0.1,0.2
							c0,0,0,0,0,0.1c-0.5,0.9-1.5,1.1-2.6,0.7c-0.2-0.1-0.3-0.1-0.5-0.2c0,0-0.1-0.1-0.1-0.1c-0.1-0.1-0.1-0.1-0.2-0.1l0,0
							c-0.1-0.1-0.3-0.2-0.4-0.3c0,0,0,0-0.1,0c-0.1,0-0.1-0.1-0.2-0.1c0,0,0,0-0.1-0.1c-0.1-0.1-0.1-0.1-0.2-0.2
							c-0.1-0.1-0.2-0.2-0.3-0.3l-0.5,1.2c0.1,0.1,0.2,0.2,0.3,0.3c0.1,0.1,0.2,0.2,0.3,0.3c0,0,0.1,0.1,0.1,0.1
							c0.1,0.1,0.1,0.1,0.2,0.2c0,0,0,0,0.1,0.1c0.2,0.2,0.4,0.3,0.6,0.4c0,0,0,0,0,0c0.1,0.1,0.2,0.1,0.3,0.2l0,0
							c0.1,0,0.1,0.1,0.2,0.1c0.1,0.1,0.3,0.2,0.4,0.2c0.1,0.1,0.2,0.1,0.3,0.1c1.6,0.6,3.1,0.2,3.8-1.3c1-2.2-0.2-6.1-2.7-8.6
							C656.9,111.4,656.8,111.3,656.8,111.2z"/>
					</g>
				</g>
			</g>
			<g>
				<g class="st6">
					<g>
						<polygon class="st49" points="497.5,174.6 488.8,169.7 488.7,150.4 497.4,155.3 						"/>
					</g>
					<g>
						<polygon class="st50" points="497.4,155.3 488.7,150.4 496.3,146.1 505,151.1 						"/>
					</g>
					<g>
						<polygon class="st3" points="505,151.1 505,170.3 497.5,174.6 497.4,155.3 						"/>
					</g>
				</g>
				<g class="st6">
					<g>
						<polygon class="st51" points="483.1,182.6 474.5,177.7 474.4,142.5 483,147.4 						"/>
					</g>
					<g>
						<polygon class="st53" points="483,147.4 474.4,142.5 481.9,138.2 490.6,143.1 						"/>
					</g>
					<g>
						<polygon class="st53" points="490.6,143.1 490.7,178.4 483.1,182.6 483,147.4 						"/>
					</g>
				</g>
				<g class="st6">
					<g>
						<polygon class="st43" points="468.8,190.7 460.2,185.8 460.1,177.6 468.8,182.6 						"/>
					</g>
					<g>
						<polygon class="st44" points="468.8,182.6 460.1,177.6 467.7,173.4 476.4,178.3 						"/>
					</g>
					<g>
						<polygon class="st45" points="476.4,178.3 476.4,186.5 468.8,190.7 468.8,182.6 						"/>
					</g>
				</g>
			</g>
			<g>
				<path id="XMLID_3_" class="st42" d="M826.6,202.5l-1.1-45.1c0-0.2-0.1-0.3-0.2-0.4l-64.5-34.4c-0.3-0.2-0.7,0.1-0.7,0.4
					l1.1,45.1c0,0.2,0.1,0.3,0.2,0.4l64.5,34.4C826.2,203,826.6,202.8,826.6,202.5z"/>
				<g>
					<g>
						<path class="st59" d="M811.3,168.8c0.3,0.2,0.6,0.4,0.9,0.6c4.7,3.6,5.1,15.8,5.1,16.4l-48.8-27.5c2.9,1.4,3.6,0,4.9-0.7
							c0.3-0.2,0.7-0.1,1,0.1c1.3,0.7,3.1,3.3,5.2,4.7c0.1,0,0.1,0.1,0.2,0.1c1.1,0.6,1.9,0.2,2.7-0.2c0.8-0.4,1.7-0.7,3,0
							c0.5,0.3,1,0.6,1.5,1.2c1,1,1.7,1.6,2.2,1.9c1.5,0.9,1.7-0.7,3.4-1.8c1.2-0.8,2.6-0.6,4.3,0.3c1.5,0.8,3.1,2.2,4.9,4.1
							c0.4,0.4,0.8,0.7,1.2,0.9c1.4,0.8,2.6,0.3,3.9-0.2C808.1,168.2,809.5,167.8,811.3,168.8z"/>
					</g>
				</g>
			</g>
			<g>
				<g class="st6">
					<polygon class="st63" points="665.9,302.9 715.8,331.2 729.2,323.7 679.3,295.4 					"/>
					<path class="st15" d="M710.5,340.3c0-0.4,0-0.8,0.1-1.2c0-0.1,0-0.1,0-0.2c0.1-0.4,0.2-0.8,0.3-1.1c0,0,0-0.1,0-0.1
						c0.1-0.4,0.3-0.8,0.5-1.2c0,0,0,0,0,0c0.2-0.4,0.4-0.8,0.6-1.2c0,0,0,0,0,0c0.2-0.4,0.5-0.8,0.8-1.1c0,0,0-0.1,0.1-0.1
						c0.2-0.3,0.5-0.6,0.8-0.9c0.1-0.1,0.1-0.1,0.2-0.2c0.2-0.2,0.4-0.4,0.7-0.6c0.1-0.1,0.2-0.2,0.3-0.3c0.3-0.3,0.7-0.5,1-0.7
						l-49.9-28.3c-0.3,0.2-0.7,0.4-1,0.7c-0.1,0.1-0.2,0.2-0.3,0.3c-0.2,0.1-0.3,0.3-0.5,0.4c-0.1,0.1-0.1,0.1-0.2,0.2
						c-0.1,0.1-0.1,0.1-0.2,0.2c-0.1,0.1-0.1,0.1-0.2,0.2c-0.1,0.2-0.3,0.3-0.4,0.5c0,0.1-0.1,0.1-0.1,0.2c0,0,0,0.1-0.1,0.1
						c0,0.1-0.1,0.1-0.1,0.2c-0.1,0.1-0.2,0.3-0.3,0.5c-0.1,0.1-0.2,0.3-0.3,0.4c0,0,0,0,0,0c0,0,0,0,0,0c-0.1,0.1-0.1,0.2-0.2,0.4
						c-0.1,0.1-0.2,0.3-0.2,0.4c-0.1,0.1-0.1,0.3-0.2,0.4c0,0,0,0,0,0c0,0,0,0,0,0c-0.1,0.2-0.1,0.3-0.2,0.5
						c-0.1,0.2-0.1,0.3-0.2,0.5c0,0.1-0.1,0.2-0.1,0.2c0,0,0,0.1,0,0.1c0,0.1,0,0.1-0.1,0.2c-0.1,0.2-0.1,0.4-0.2,0.6
						c0,0.1,0,0.2-0.1,0.4c0,0.1,0,0.1,0,0.2c0,0.1,0,0.1,0,0.2c0,0.3-0.1,0.7-0.1,1c0,0.8,0.2,1.5,0.4,2.1c0.3,0.6,0.7,1,1.1,1.3
						l49.9,28.3C711.1,343.1,710.5,341.9,710.5,340.3z"/>
					<g>
						<path class="st27" d="M760.2,306.2l0,12.1l-44.4,25c-3,1.7-5.4,0.3-5.4-3c0-3.3,2.4-7.4,5.4-9.1L760.2,306.2z"/>
					</g>
				</g>
			</g>
			<g>
				<g>
					<g>
						<g class="st6">
							<g class="st6">
								<defs>
									<path id="SVGID_21_" class="st6" d="M713.3,298.3l0,2.6c0-1.2-4.3-3.4-4.3-5.6l0-2.6C709,294.9,713.3,297.1,713.3,298.3z"
										/>
								</defs>
								<clipPath id="SVGID_22_">
									<use xlink:href="#SVGID_21_"  style="overflow:visible;"/>
								</clipPath>
							</g>
						</g>
					</g>
				</g>
			</g>
		</g>
	</g>
</g>
</svg>
